HIERARCHY
ROOT newVegas:Hips
{
	OFFSET 0.000000 96.479958 0.000000
	CHANNELS 6 Xposition Yposition Zposition Xrotation Yrotation Zrotation
	JOINT newVegas:Pelvis
	{
		OFFSET 0.000000 0.000000 0.000000
		CHANNELS 3 Xrotation Yrotation Zrotation
		JOINT newVegas:LeftUpLeg
		{
			OFFSET 18.735201 -5.666702 -4.541200
			CHANNELS 3 Xrotation Yrotation Zrotation
			JOINT newVegas:LeftLeg
			{
				OFFSET -0.021200 -31.938179 0.493100
				CHANNELS 3 Xrotation Yrotation Zrotation
				JOINT newVegas:LeftFoot
				{
					OFFSET 0.021200 -31.938179 -4.336299
					CHANNELS 3 Xrotation Yrotation Zrotation
					JOINT newVegas:LeftToeBase
					{
						OFFSET 0.943001 -26.722000 15.023500
						CHANNELS 3 Xrotation Yrotation Zrotation
						End Site
						{
							OFFSET 0.000000 30.670183 0.000000
						}
					}
				}
				JOINT newVegas:Left_PantLeg
				{
					OFFSET 0.663870 -9.044666 -1.108900
					CHANNELS 3 Xrotation Yrotation Zrotation
					End Site
					{
						OFFSET 1.415995 20.635357 0.000000
					}
				}
			}
		}
		JOINT newVegas:RightUpLeg
		{
			OFFSET -18.735201 -5.666702 -4.541200
			CHANNELS 3 Xrotation Yrotation Zrotation
			JOINT newVegas:RightLeg
			{
				OFFSET 0.018946 -31.938133 0.493100
				CHANNELS 3 Xrotation Yrotation Zrotation
				JOINT newVegas:RightFoot
				{
					OFFSET -0.018946 -31.938126 -4.336299
					CHANNELS 3 Xrotation Yrotation Zrotation
					JOINT newVegas:RightToeBase
					{
						OFFSET -0.943001 -26.722004 15.023500
						CHANNELS 3 Xrotation Yrotation Zrotation
						End Site
						{
							OFFSET 0.000000 30.670187 0.000000
						}
					}
				}
				JOINT newVegas:Right_PantLeg
				{
					OFFSET -0.661674 -9.044716 -1.108900
					CHANNELS 3 Xrotation Yrotation Zrotation
					End Site
					{
						OFFSET -1.415958 20.635269 0.000000
					}
				}
			}
		}
	}
	JOINT newVegas:Spine
	{
		OFFSET 0.000000 10.199997 -0.299500
		CHANNELS 3 Xrotation Yrotation Zrotation
		JOINT newVegas:Spine1
		{
			OFFSET 0.000000 11.900002 -1.516600
			CHANNELS 3 Xrotation Yrotation Zrotation
			JOINT newVegas:Spine2
			{
				OFFSET 0.000000 13.600006 -2.842500
				CHANNELS 3 Xrotation Yrotation Zrotation
				JOINT newVegas:Neck
				{
					OFFSET 0.000000 9.624100 -2.890100
					CHANNELS 3 Xrotation Yrotation Zrotation
					JOINT newVegas:Head
					{
						OFFSET 0.000000 14.068802 -1.351900
						CHANNELS 3 Xrotation Yrotation Zrotation
						JOINT newVegas:Hair_Back
						{
							OFFSET 0.000000 3.231903 -17.524799
							CHANNELS 3 Xrotation Yrotation Zrotation
							End Site
							{
								OFFSET 0.000000 19.849884 0.000000
							}
						}
						JOINT newVegas:Hair_Front
						{
							OFFSET 0.000000 31.260406 4.573800
							CHANNELS 3 Xrotation Yrotation Zrotation
							JOINT newVegas:Hair_Front1
							{
								OFFSET 0.000000 2.284103 11.993300
								CHANNELS 3 Xrotation Yrotation Zrotation
								JOINT newVegas:Hair_Front2
								{
									OFFSET 0.000000 2.284103 11.993300
									CHANNELS 3 Xrotation Yrotation Zrotation
									End Site
									{
										OFFSET 0.000000 12.208862 0.000000
									}
								}
							}
						}
						JOINT newVegas:Jowel
						{
							OFFSET 0.000000 -7.458206 6.864100
							CHANNELS 3 Xrotation Yrotation Zrotation
							End Site
							{
								OFFSET 0.000000 19.849884 0.000000
							}
						}
					}
				}
				JOINT newVegas:LeftShoulder
				{
					OFFSET 15.263000 10.923401 -0.547700
					CHANNELS 3 Xrotation Yrotation Zrotation
					JOINT newVegas:LeftArm
					{
						OFFSET 25.438599 -2.830597 -13.032500
						CHANNELS 3 Xrotation Yrotation Zrotation
						JOINT newVegas:LeftForeArm
						{
							OFFSET 29.960503 0.000000 0.000000
							CHANNELS 3 Xrotation Yrotation Zrotation
							JOINT newVegas:LeftHand
							{
								OFFSET 27.849251 0.000000 0.000000
								CHANNELS 3 Xrotation Yrotation Zrotation
								JOINT newVegas:LeftHandThumb1
								{
									OFFSET 4.487587 -3.305161 6.305391
									CHANNELS 3 Xrotation Yrotation Zrotation
									JOINT newVegas:LeftHandThumb2
									{
										OFFSET 5.480453 -3.164139 3.164143
										CHANNELS 3 Xrotation Yrotation Zrotation
										JOINT newVegas:LeftHandThumb3
										{
											OFFSET 5.159721 -2.978973 2.978967
											CHANNELS 3 Xrotation Yrotation Zrotation
											End Site
											{
												OFFSET 2.494507 5.926697 1.738678
											}
										}
									}
								}
								JOINT newVegas:LeftHandIndex1
								{
									OFFSET 18.578728 -0.527832 5.208049
									CHANNELS 3 Xrotation Yrotation Zrotation
									JOINT newVegas:LeftHandIndex2
									{
										OFFSET 3.192009 0.000000 0.000000
										CHANNELS 3 Xrotation Yrotation Zrotation
										JOINT newVegas:LeftHandIndex3
										{
											OFFSET 3.835129 0.000000 0.000000
											CHANNELS 3 Xrotation Yrotation Zrotation
											End Site
											{
												OFFSET -0.034599 3.816971 0.371180
											}
										}
									}
								}
								JOINT newVegas:LeftHandMiddle1
								{
									OFFSET 18.476105 0.000000 0.000000
									CHANNELS 3 Xrotation Yrotation Zrotation
									JOINT newVegas:LeftHandMiddle2
									{
										OFFSET 3.324875 0.000000 0.000000
										CHANNELS 3 Xrotation Yrotation Zrotation
										JOINT newVegas:LeftHandMiddle3
										{
											OFFSET 4.596550 0.000000 0.000000
											CHANNELS 3 Xrotation Yrotation Zrotation
											End Site
											{
												OFFSET 0.057701 4.578827 0.399218
											}
										}
									}
								}
								JOINT newVegas:LeftHandRing1
								{
									OFFSET 17.732719 0.121887 -4.201567
									CHANNELS 3 Xrotation Yrotation Zrotation
									JOINT newVegas:LeftHandRing2
									{
										OFFSET 2.733170 0.000000 0.000000
										CHANNELS 3 Xrotation Yrotation Zrotation
										JOINT newVegas:LeftHandRing3
										{
											OFFSET 3.178268 0.000000 0.000000
											CHANNELS 3 Xrotation Yrotation Zrotation
											End Site
											{
												OFFSET 0.119102 3.170624 0.185394
											}
										}
									}
								}
								JOINT newVegas:LeftHandPinky1
								{
									OFFSET 15.989624 -0.606689 -7.535461
									CHANNELS 3 Xrotation Yrotation Zrotation
									JOINT newVegas:LeftHandPinky2
									{
										OFFSET 2.538986 0.000000 0.000000
										CHANNELS 3 Xrotation Yrotation Zrotation
										JOINT newVegas:LeftHandPinky3
										{
											OFFSET 2.593102 0.000000 0.000000
											CHANNELS 3 Xrotation Yrotation Zrotation
											End Site
											{
												OFFSET -0.150902 2.584198 0.152708
											}
										}
									}
								}
							}
							JOINT newVegas:Left_Sleeve
							{
								OFFSET 0.267448 -0.649796 0.577675
								CHANNELS 3 Xrotation Yrotation Zrotation
								End Site
								{
									OFFSET 0.000000 15.991241 0.000000
								}
							}
							JOINT newVegas:Left_CapeC
							{
								OFFSET 15.715958 -8.608795 -6.935905
								CHANNELS 3 Xrotation Yrotation Zrotation
								JOINT newVegas:Left_CapeC1
								{
									OFFSET 0.000000 -8.688499 0.000000
									CHANNELS 3 Xrotation Yrotation Zrotation
									End Site
									{
										OFFSET 0.000000 8.688499 0.000000
									}
								}
							}
						}
						JOINT newVegas:Left_CapeB
						{
							OFFSET 26.118385 -8.608795 -7.079235
							CHANNELS 3 Xrotation Yrotation Zrotation
							JOINT newVegas:Left_CapeB1
							{
								OFFSET 0.000000 -8.688499 0.000000
								CHANNELS 3 Xrotation Yrotation Zrotation
								End Site
								{
									OFFSET 0.000000 8.688499 0.000000
								}
							}
						}
						JOINT newVegas:Left_CapeA
						{
							OFFSET 5.115639 -8.608795 -10.395809
							CHANNELS 3 Xrotation Yrotation Zrotation
							JOINT newVegas:Left_CapeA1
							{
								OFFSET 0.000000 -8.688499 0.000000
								CHANNELS 3 Xrotation Yrotation Zrotation
								End Site
								{
									OFFSET 0.000000 8.688499 0.000000
								}
							}
						}
					}
				}
				JOINT newVegas:RightShoulder
				{
					OFFSET -15.263000 10.923401 -0.547700
					CHANNELS 3 Xrotation Yrotation Zrotation
					JOINT newVegas:RightArm
					{
						OFFSET -25.438599 -2.830597 -13.032500
						CHANNELS 3 Xrotation Yrotation Zrotation
						JOINT newVegas:RightForeArm
						{
							OFFSET -29.960503 0.000000 0.000000
							CHANNELS 3 Xrotation Yrotation Zrotation
							JOINT newVegas:RightHand
							{
								OFFSET -27.849251 0.000000 0.000000
								CHANNELS 3 Xrotation Yrotation Zrotation
								JOINT newVegas:RightHandThumb1
								{
									OFFSET -4.487587 -3.305161 6.305391
									CHANNELS 3 Xrotation Yrotation Zrotation
									JOINT newVegas:RightHandThumb2
									{
										OFFSET -5.480453 -3.164139 3.164143
										CHANNELS 3 Xrotation Yrotation Zrotation
										JOINT newVegas:RightHandThumb3
										{
											OFFSET -5.159721 -2.978973 2.978967
											CHANNELS 3 Xrotation Yrotation Zrotation
											End Site
											{
												OFFSET -2.494507 5.926697 1.738678
											}
										}
									}
								}
								JOINT newVegas:RightHandIndex1
								{
									OFFSET -18.578728 -0.527832 5.208049
									CHANNELS 3 Xrotation Yrotation Zrotation
									JOINT newVegas:RightHandIndex2
									{
										OFFSET -3.192009 0.000000 0.000000
										CHANNELS 3 Xrotation Yrotation Zrotation
										JOINT newVegas:RightHandIndex3
										{
											OFFSET -3.835129 0.000000 0.000000
											CHANNELS 3 Xrotation Yrotation Zrotation
											End Site
											{
												OFFSET 0.034599 3.816971 0.371180
											}
										}
									}
								}
								JOINT newVegas:RightHandMiddle1
								{
									OFFSET -18.476105 0.000000 0.000000
									CHANNELS 3 Xrotation Yrotation Zrotation
									JOINT newVegas:RightHandMiddle2
									{
										OFFSET -3.324875 0.000000 0.000000
										CHANNELS 3 Xrotation Yrotation Zrotation
										JOINT newVegas:RightHandMiddle3
										{
											OFFSET -4.596550 0.000000 0.000000
											CHANNELS 3 Xrotation Yrotation Zrotation
											End Site
											{
												OFFSET -0.057701 4.578827 0.399218
											}
										}
									}
								}
								JOINT newVegas:RightHandRing1
								{
									OFFSET -17.732719 0.121887 -4.201567
									CHANNELS 3 Xrotation Yrotation Zrotation
									JOINT newVegas:RightHandRing2
									{
										OFFSET -2.733170 0.000000 0.000000
										CHANNELS 3 Xrotation Yrotation Zrotation
										JOINT newVegas:RightHandRing3
										{
											OFFSET -3.178268 0.000000 0.000000
											CHANNELS 3 Xrotation Yrotation Zrotation
											End Site
											{
												OFFSET -0.119102 3.170624 0.185394
											}
										}
									}
								}
								JOINT newVegas:RightHandPinky1
								{
									OFFSET -15.989624 -0.606689 -7.535461
									CHANNELS 3 Xrotation Yrotation Zrotation
									JOINT newVegas:RightHandPinky2
									{
										OFFSET -2.538986 0.000000 0.000000
										CHANNELS 3 Xrotation Yrotation Zrotation
										JOINT newVegas:RightHandPinky3
										{
											OFFSET -2.593102 0.000000 0.000000
											CHANNELS 3 Xrotation Yrotation Zrotation
											End Site
											{
												OFFSET 0.150902 2.584198 0.152708
											}
										}
									}
								}
							}
							JOINT newVegas:Right_CapeC
							{
								OFFSET -15.715958 -8.608795 -6.935905
								CHANNELS 3 Xrotation Yrotation Zrotation
								JOINT newVegas:Right_CapeC1
								{
									OFFSET 0.000000 -8.688499 0.000000
									CHANNELS 3 Xrotation Yrotation Zrotation
									End Site
									{
										OFFSET 0.000000 8.688499 0.000000
									}
								}
							}
							JOINT newVegas:Right_Sleeve
							{
								OFFSET -0.267448 -0.649994 0.577675
								CHANNELS 3 Xrotation Yrotation Zrotation
								End Site
								{
									OFFSET 0.000000 15.991302 0.000000
								}
							}
						}
						JOINT newVegas:Right_CapeA
						{
							OFFSET -5.115540 -8.608795 -10.395824
							CHANNELS 3 Xrotation Yrotation Zrotation
							JOINT newVegas:Right_CapeA1
							{
								OFFSET 0.000000 -8.688499 0.000000
								CHANNELS 3 Xrotation Yrotation Zrotation
								End Site
								{
									OFFSET 0.000000 8.688499 0.000000
								}
							}
						}
						JOINT newVegas:Right_CapeB
						{
							OFFSET -26.118187 -8.608795 -7.079266
							CHANNELS 3 Xrotation Yrotation Zrotation
							JOINT newVegas:Right_CapeB1
							{
								OFFSET 0.000000 -8.688499 0.000000
								CHANNELS 3 Xrotation Yrotation Zrotation
								End Site
								{
									OFFSET 0.000000 8.688499 0.000000
								}
							}
						}
					}
				}
				JOINT newVegas:Left_Collar
				{
					OFFSET 18.625099 8.655502 8.828100
					CHANNELS 3 Xrotation Yrotation Zrotation
					JOINT newVegas:Left_Collar1
					{
						OFFSET 14.783401 10.540405 -1.259500
						CHANNELS 3 Xrotation Yrotation Zrotation
						End Site
						{
							OFFSET 0.000000 18.199875 0.000000
						}
					}
				}
				JOINT newVegas:Collar_Back
				{
					OFFSET 0.000000 15.630707 -20.132601
					CHANNELS 3 Xrotation Yrotation Zrotation
					End Site
					{
						OFFSET 0.000000 22.523010 0.000000
					}
				}
				JOINT newVegas:Left_Peck
				{
					OFFSET 17.239599 -5.132599 25.482599
					CHANNELS 3 Xrotation Yrotation Zrotation
					End Site
					{
						OFFSET 0.000000 22.523010 0.000000
					}
				}
				JOINT newVegas:Right_Peck
				{
					OFFSET -17.239599 -5.132202 25.482599
					CHANNELS 3 Xrotation Yrotation Zrotation
					End Site
					{
						OFFSET 0.000000 22.523010 0.000000
					}
				}
				JOINT newVegas:Right_Collar
				{
					OFFSET -18.625099 8.655792 8.828100
					CHANNELS 3 Xrotation Yrotation Zrotation
					JOINT newVegas:Right_Collar1
					{
						OFFSET -14.783401 10.539993 -1.259500
						CHANNELS 3 Xrotation Yrotation Zrotation
						End Site
						{
							OFFSET 0.000000 18.199631 0.000000
						}
					}
				}
			}
		}
		JOINT newVegas:Belly
		{
			OFFSET 0.000000 -6.540398 9.014299
			CHANNELS 3 Xrotation Yrotation Zrotation
			End Site
			{
				OFFSET 0.000000 11.566666 0.000000
			}
		}
	}
	JOINT newVegas:ElvisFacialAnim_Joint
	{
		OFFSET 1.000000 -95.330101 -8.825800
		CHANNELS 3 Xrotation Yrotation Zrotation
		End Site
		{
			OFFSET 0.000000 35.315800 0.000000
		}
	}
}
MOTION
Frames: 4
Frame Time: 0.016667
-2.690670 92.334435 -50.474716 168.740274 -64.269293 168.638218 0.000000 0.000001 0.000000 -34.069824 1.756183 16.300774 43.600048 -1.776017 -2.373786 -8.212962 1.842692 -6.010987 0.000000 -0.000000 -0.000000 0.000001 -0.000000 0.000000 -13.761235 -12.167385 9.356456 23.049505 11.140807 1.178937 -11.756899 0.045829 -13.592267 0.000000 -0.000000 -0.000000 0.000002 0.000002 -0.000001 4.934220 1.777537 4.198198 -5.203247 2.467259 -3.030997 -5.047561 2.231922 -3.347159 0.517468 4.690926 2.017424 0.517467 4.690956 2.017424 0.000000 -0.000000 0.000000 0.517397 4.690933 2.017430 0.517540 4.690925 2.017422 -0.000000 0.000000 -0.000000 0.000000 -0.000000 0.000000 1.079196 -0.344046 0.608159 7.615777 0.677542 -69.161683 8.512041 -19.175268 -8.474004 -0.253749 5.731271 10.881029 -1.204158 -0.037725 2.325157 0.318650 1.093444 0.433689 -0.000000 -0.000003 0.000000 0.780507 2.266537 -9.845916 -0.039189 0.057434 -8.823556 -0.000002 0.000001 0.000000 -0.057948 1.143072 -15.947763 -0.014711 -0.043613 -10.491578 0.000001 0.000001 0.000000 -0.956180 0.304859 -20.266075 0.002266 0.016802 -13.465769 0.000001 -0.000001 0.000001 -2.256741 -1.970761 -24.904430 -0.016578 -0.001861 -16.389710 0.000000 -0.000003 0.000001 0.000003 -0.000000 0.000000 0.000003 -0.000000 0.000000 0.000002 -0.000000 0.000000 0.000001 -0.000001 -0.000000 0.000001 -0.000001 -0.000000 0.000001 -0.000001 -0.000000 0.000001 -0.000002 -0.000000 2.374283 -3.484720 16.761271 13.068525 30.203991 51.934771 13.595698 26.328831 -0.878557 -25.360445 0.110635 -14.410979 2.581847 -11.453545 -2.444555 -0.570757 -0.849126 0.050484 0.000003 -0.000003 0.000001 1.440382 0.413068 28.354762 -0.036424 -0.061696 22.129055 -0.000001 -0.000002 -0.000002 1.194451 -2.816504 28.395487 -0.003768 0.018418 22.137608 -0.000000 0.000001 -0.000003 2.678420 -6.989689 31.433729 -0.003193 0.002758 24.099366 0.000001 0.000004 0.000003 1.168961 -9.903090 35.638008 -0.027255 -0.005262 28.957007 -0.000002 0.000002 -0.000002 0.000000 0.000003 -0.000000 0.000000 0.000002 -0.000002 0.000000 0.000003 -0.000001 -0.000000 -0.000001 -0.000004 0.000000 0.000000 -0.000002 -0.000000 -0.000001 -0.000004 0.000000 -0.000000 -0.000002 -0.000000 -0.000001 -0.000000 -0.000000 -0.000001 -0.000000 -0.000000 -0.000001 -0.000000 -0.000000 -0.000001 -0.000000 -0.000000 -0.000001 -0.000000 -0.000000 -0.000001 -0.000000 -0.000000 -0.000001 -0.000000 -0.000000 -0.000002 0.000000 0.000000 0.000001 0.000000 
-2.967309 92.342690 -51.443970 169.977508 -61.367221 170.001660 -0.000000 0.000000 -0.000000 -34.630043 -1.564678 14.007184 43.040560 -2.293556 -2.341400 -7.171375 2.200647 -7.191596 0.000000 -0.000003 0.000000 -0.000000 0.000000 0.000000 -13.516745 -11.024881 9.754858 22.775928 13.350918 1.743031 -11.084145 -0.401593 -14.757532 0.000000 -0.000002 0.000000 0.000001 -0.000000 -0.000000 5.162302 2.019706 4.023363 -5.105463 2.660220 -2.985251 -4.948700 2.420738 -3.321704 0.524781 4.488478 2.004502 0.524784 4.488474 2.004508 -0.000000 0.000000 -0.000000 0.524850 4.488456 2.004502 0.524775 4.488478 2.004501 0.000000 -0.000000 0.000000 -0.000000 0.000000 -0.000000 1.084987 -0.270531 0.764947 7.759413 1.002645 -69.954552 9.038371 -17.908093 -8.643467 -0.335433 5.197237 10.898112 -1.478761 -0.052887 2.856638 0.423967 1.338723 0.492552 0.000002 0.000000 -0.000001 0.776353 2.123248 -10.418608 -0.038695 0.058203 -9.704967 -0.000004 -0.000001 0.000000 -0.070170 1.239202 -17.072145 -0.015198 -0.043090 -11.179851 0.000002 0.000001 0.000001 -0.932955 0.718932 -21.232283 0.001396 0.016847 -14.059879 -0.000001 0.000001 -0.000001 -2.179911 -1.508450 -25.735060 -0.015919 -0.001827 -16.850620 -0.000002 -0.000003 0.000000 0.000001 0.000000 -0.000001 0.000001 0.000000 -0.000001 0.000001 0.000001 -0.000001 -0.000001 0.000000 0.000001 -0.000001 0.000000 0.000001 -0.000001 0.000000 0.000001 -0.000001 -0.000000 0.000000 2.402569 -3.497409 16.751802 12.583210 31.110911 52.037763 13.766161 26.236985 -1.171561 -25.494540 0.419211 -14.057177 2.689887 -11.385043 -2.336688 -0.589408 -0.816111 0.061325 0.000001 0.000000 0.000003 1.424560 0.474516 28.171918 -0.036558 -0.061455 21.925413 -0.000001 -0.000001 -0.000003 1.214510 -2.843281 28.205638 -0.004069 0.018579 22.050427 0.000000 -0.000001 0.000002 2.743103 -7.190477 31.250492 -0.003095 0.002920 24.042237 0.000001 0.000001 0.000000 1.304923 -10.155935 35.440813 -0.027406 -0.004626 28.751791 -0.000001 0.000001 0.000004 0.000004 -0.000001 0.000001 0.000002 -0.000001 0.000001 0.000004 -0.000001 0.000002 0.000001 0.000001 0.000001 0.000001 0.000001 0.000001 0.000001 0.000001 0.000001 0.000001 0.000001 0.000001 -0.000000 0.000000 -0.000000 -0.000000 0.000000 -0.000000 -0.000000 0.000000 -0.000000 -0.000000 0.000000 -0.000000 -0.000000 0.000000 -0.000000 -0.000000 0.000000 -0.000000 -0.000000 0.000000 -0.000000 0.000001 0.000002 -0.000000 -0.000000 0.000000 -0.000000 
-3.248815 92.364784 -52.440460 171.003348 -58.482054 171.161563 -0.000000 -0.000002 0.000000 -35.099061 -5.100667 11.444811 42.038431 -2.299975 -2.249224 -6.200445 2.491513 -7.603018 -0.000000 -0.000001 0.000000 -0.000000 -0.000002 0.000001 -13.195809 -9.893719 10.116290 22.437419 15.516942 2.301426 -10.388995 -0.831281 -15.858746 -0.000000 0.000002 -0.000000 -0.000000 0.000001 -0.000001 5.359934 2.229087 3.756753 -4.955285 2.804415 -2.879609 -4.801089 2.565716 -3.228154 0.512388 4.244405 1.934537 0.512395 4.244373 1.934537 -0.000000 -0.000002 0.000000 0.512459 4.244410 1.934530 0.512383 4.244391 1.934539 0.000000 -0.000000 0.000000 -0.000000 -0.000002 0.000000 1.090521 -0.182197 0.891429 7.710968 1.275670 -70.804596 9.524840 -16.278588 -8.901424 -0.390372 4.458872 10.944898 -1.769597 -0.071484 3.420115 0.535342 1.598846 0.554598 0.000004 -0.000004 -0.000007 0.768846 1.971731 -11.025873 -0.038083 0.058899 -10.639445 -0.000005 -0.000001 0.000000 -0.080009 1.342118 -18.264392 -0.015682 -0.042491 -11.909589 -0.000001 -0.000000 -0.000001 -0.893365 1.157110 -22.256288 0.000512 0.016837 -14.689853 -0.000002 -0.000000 -0.000001 -2.084345 -1.021307 -26.615714 -0.015226 -0.001750 -17.339248 -0.000000 -0.000002 -0.000001 0.000000 0.000000 -0.000000 0.000000 0.000000 -0.000000 -0.000001 0.000000 -0.000000 -0.000000 0.000000 -0.000001 0.000000 0.000000 -0.000001 -0.000000 0.000000 -0.000001 0.000000 0.000001 -0.000001 2.414812 -3.468811 16.571757 11.779243 32.237810 52.296518 13.724221 25.885331 -1.445379 -25.372601 0.810138 -13.612463 2.749177 -11.300869 -2.257979 -0.586603 -0.825552 0.059892 0.000001 -0.000001 0.000001 1.416252 0.519328 27.896011 -0.036860 -0.061099 21.624299 -0.000002 0.000002 -0.000001 1.233988 -2.874388 27.920242 -0.004608 0.018922 21.892944 0.000001 0.000001 0.000001 2.793557 -7.399022 30.970905 -0.003035 0.003483 23.922107 -0.000001 0.000000 0.000003 1.432153 -10.393867 35.139694 -0.027704 -0.003760 28.434105 -0.000003 -0.000002 -0.000001 0.000000 0.000001 -0.000001 -0.000000 0.000000 0.000000 0.000000 0.000000 -0.000000 0.000000 0.000001 0.000001 0.000001 0.000001 0.000001 0.000000 0.000001 0.000001 0.000001 -0.000000 0.000001 0.000000 0.000000 -0.000000 0.000000 0.000000 -0.000000 0.000000 0.000000 -0.000000 0.000000 0.000000 -0.000000 0.000000 0.000000 -0.000000 0.000000 0.000000 -0.000000 0.000000 0.000000 -0.000000 0.000000 0.000002 -0.000000 -0.000000 -0.000002 0.000000 
-3.541378 92.364700 -53.442661 171.860988 -55.602360 172.145110 -0.000000 0.000000 -0.000000 -35.709161 -8.273923 9.296674 40.648932 -2.289223 -2.119557 -4.989002 2.795260 -8.645420 0.000000 0.000002 -0.000000 0.000001 0.000001 -0.000000 -12.911744 -8.799924 10.422379 22.246536 17.632197 2.850535 -9.779567 -1.204536 -16.907698 0.000000 -0.000000 0.000000 0.000001 0.000001 0.000002 5.548573 2.422218 3.454651 -4.780149 2.924335 -2.745297 -4.630334 2.689124 -3.101843 0.481851 3.962432 1.827893 0.481884 3.962418 1.827877 -0.000000 -0.000000 -0.000000 0.481937 3.962415 1.827880 0.482037 3.962477 1.827862 0.000000 -0.000001 0.000000 -0.000000 -0.000000 0.000000 1.095807 -0.075117 0.979791 7.590611 1.535498 -71.647387 10.023776 -14.552000 -9.196448 -0.424792 3.666665 10.967960 -2.073304 -0.093854 4.009376 0.651487 1.871045 0.618949 0.000001 -0.000002 -0.000005 0.757636 1.813765 -11.660786 -0.037465 0.059748 -11.616607 -0.000001 -0.000002 0.000000 -0.085259 1.450685 -19.510861 -0.016154 -0.041872 -12.672588 0.000004 0.000000 -0.000000 -0.835510 1.613786 -23.326407 -0.000323 0.016822 -15.348489 -0.000003 -0.000001 -0.000001 -1.968856 -0.515639 -27.536526 -0.014508 -0.001592 -17.850266 -0.000003 -0.000002 0.000003 0.000000 0.000000 -0.000000 0.000000 0.000000 -0.000000 -0.000001 0.000000 -0.000000 0.000002 -0.000002 -0.000003 0.000002 -0.000002 -0.000003 0.000002 -0.000002 -0.000003 0.000002 -0.000003 -0.000004 2.421330 -3.425014 16.328214 10.845197 33.443881 52.653638 13.606737 25.436920 -1.713353 -25.161068 1.234116 -13.135273 2.763429 -11.202530 -2.206403 -0.565030 -0.874822 0.047929 -0.000000 -0.000001 -0.000002 1.414809 0.548672 27.535091 -0.037198 -0.060769 21.233829 -0.000001 -0.000001 0.000002 1.252665 -2.909455 27.547290 -0.005338 0.019403 21.671085 -0.000001 -0.000001 0.000002 2.829545 -7.614531 30.603144 -0.002876 0.004156 23.744108 0.000000 0.000001 0.000000 1.549886 -10.618335 34.743533 -0.028188 -0.002615 28.013411 -0.000000 0.000003 -0.000001 -0.000000 0.000001 -0.000000 -0.000000 0.000000 0.000000 -0.000000 0.000001 -0.000000 0.000000 0.000000 -0.000001 0.000001 0.000001 0.000001 0.000000 0.000000 -0.000001 0.000001 -0.000000 0.000001 -0.000000 -0.000000 -0.000000 -0.000000 -0.000000 -0.000000 -0.000000 -0.000000 -0.000000 -0.000000 -0.000000 -0.000000 -0.000000 -0.000000 -0.000000 -0.000000 -0.000000 -0.000000 -0.000000 -0.000000 -0.000000 -0.000000 0.000000 -0.000000 -0.000000 0.000000 -0.000000 
